<svg width="536" height="118" viewBox="0 0 536 118" fill="none" xmlns="http://www.w3.org/2000/svg">
<path fill-rule="evenodd" clip-rule="evenodd" d="M307.327 42.8081L318.529 32.812H318.705V87.3342H307.327V42.8081ZM181.561 39.5438L173.02 47.1653C171.871 43.2534 168.703 41.5936 163.252 41.5936C158.442 41.5936 154.318 43.5027 154.318 47.7789C154.318 51.3679 157.372 52.666 161.114 53.3533L171.27 55.186C179.823 56.7896 186.084 61.2949 186.084 71.1455C186.084 80.2325 179.059 88.3269 164.169 88.3269C154.224 88.3269 147.126 84.7691 143.5 78.7629L152.494 70.7375C153.507 76.7301 158.763 78.5526 164.627 78.5526C170.659 78.5526 174.63 76.0327 174.63 71.68C174.63 67.4038 171.805 65.7239 167.223 64.8839L156.838 63.0512C147.751 61.4476 142.864 56.4077 142.864 48.1607C142.864 39.2264 150.194 31.8193 163.405 31.8193C171.502 31.8193 177.906 34.642 181.561 39.5438ZM220.556 31.8193C203.222 31.8193 193.982 44.0372 193.982 60.0731C193.982 76.109 203.222 88.3269 220.556 88.3269C237.89 88.3269 247.13 76.109 247.13 60.0731C247.13 44.0372 237.89 31.8193 220.556 31.8193ZM220.556 78.1708C210.477 78.1708 205.666 70.1528 205.666 60.0731C205.666 49.9934 210.477 41.9754 220.556 41.9754C230.789 41.9754 235.447 49.9934 235.447 60.0731C235.447 70.1528 230.789 78.1708 220.556 78.1708ZM268.583 32.812V76.949H297.448V87.3342H257.206V32.812H268.583ZM379.734 60.0731C379.734 76.4145 371.182 87.3342 354.459 87.3342H331.703V32.812H354.459C371.182 32.812 379.734 43.6554 379.734 60.0731ZM353.008 42.9681H343.081V77.1781H353.008C364.004 77.1781 368.051 69.5419 368.051 60.0731C368.051 50.6043 364.004 42.9681 353.008 42.9681Z" fill="white"/>
<path d="M318.376 24.165L306.721 34.2242V24.165H318.376Z" fill="white"/>
<path fill-rule="evenodd" clip-rule="evenodd" d="M389.794 87.3341H401.172V67.7856H414.688C427.211 67.7856 434.389 61.2185 434.389 50.1461C434.389 39.2264 427.211 32.812 414.688 32.812H389.794V87.3341ZM401.172 57.7822V42.8154H413.084C420.109 42.8154 422.706 45.4117 422.706 50.2988C422.706 55.1096 420.109 57.7822 413.084 57.7822H401.172ZM461.027 42.5863C456.522 42.5863 453.315 44.8008 452.78 49.9934H452.504L443.693 42.1315C446.681 36.0086 452.942 32.812 461.333 32.812C472.1 32.812 479.889 38.9973 479.889 49.9934C479.889 56.9422 475.765 62.593 469.962 67.0983L458.736 75.8035V77.7889H481.339V87.3341H441.861V75.8799L460.187 62.2112C464.464 59.1567 468.816 55.3387 468.816 50.2224C468.816 45.0299 465.609 42.5863 461.027 42.5863ZM490.764 87.3341H502.142V67.7856H515.658C528.181 67.7856 535.359 61.2185 535.359 50.1461C535.359 39.2264 528.181 32.812 515.658 32.812H490.764V87.3341ZM502.142 57.7822V42.8154H514.054C521.08 42.8154 523.676 45.4117 523.676 50.2988C523.676 55.1096 521.08 57.7822 514.054 57.7822H502.142Z" fill="#66D6C8"/>
<path d="M59.5686 0.0722656C27.0049 0.0722656 0.641113 26.4361 0.641113 58.9997C0.641113 91.5634 27.0049 117.927 59.5686 117.927C92.1322 117.927 118.496 91.5634 118.496 58.9997C118.496 26.4361 92.1322 0.0722656 59.5686 0.0722656ZM75.0392 88.3765H29.4964V74.4703H64.8413V81.4814L80.7755 65.779H44.1559C34.0739 65.779 25.8461 57.6091 25.8461 47.5271C25.8461 37.4451 34.0159 29.2752 44.1559 29.2752H89.8145V43.1814H54.4696V36.5181L37.3766 51.8728H75.0392C85.1212 51.8728 93.349 60.0427 93.349 70.1247C93.2911 80.2066 85.1212 88.3765 75.0392 88.3765Z" fill="#66D6C8"/>
</svg>
